<?xml version="1.0" standalone="no"?>
<!DOCTYPE svg PUBLIC "-//W3C//DTD SVG 20010904//EN"
 "http://www.w3.org/TR/2001/REC-SVG-20010904/DTD/svg10.dtd">
<svg version="1.0" xmlns="http://www.w3.org/2000/svg"
 width="263.000000pt" height="118.000000pt" viewBox="0 0 263.000000 118.000000"
 preserveAspectRatio="xMidYMid meet">
<metadata>
Created by potrace 1.16, written by Peter Selinger 2001-2019
</metadata>
<g transform="translate(0.000000,118.000000) scale(0.100000,-0.100000)"
fill="#000000" stroke="none">
<path d="M850 702 c-76 -38 -72 -145 6 -178 53 -22 84 -12 84 27 0 27 -2 30
-15 19 -38 -31 -87 17 -70 69 8 26 50 38 70 21 13 -11 15 -8 15 18 0 45 -32
54 -90 24z"/>
<path d="M1995 711 c-62 -26 -82 -116 -36 -165 76 -81 215 -4 180 101 -18 57
-87 87 -144 64z"/>
<path d="M1086 622 c-9 -50 -16 -93 -16 -96 0 -3 11 -6 24 -6 22 0 26 6 34 53
l9 52 12 -30 c7 -16 17 -40 22 -52 13 -35 27 -28 53 30 l23 52 7 -52 c7 -47
11 -53 32 -53 28 0 28 2 10 110 -11 70 -13 75 -38 78 -23 3 -28 -3 -43 -42
-10 -25 -21 -46 -24 -46 -4 0 -13 19 -21 43 -12 33 -20 43 -41 45 -26 3 -27 1
-43 -86z"/>
<path d="M1368 615 l-36 -95 28 0 c16 0 30 7 34 15 3 9 18 15 40 15 21 0 36
-6 40 -15 5 -15 56 -22 55 -7 0 4 -15 45 -32 92 -30 78 -35 85 -62 88 -29 3
-31 0 -67 -93z"/>
<path d="M1560 615 c0 -95 0 -95 25 -95 21 0 25 5 25 30 0 38 10 38 32 0 13
-23 24 -30 49 -30 l31 0 -26 35 -27 35 22 29 c19 26 20 32 7 57 -12 27 -18 29
-76 32 l-62 3 0 -96z"/>
<path d="M1750 615 c0 -95 0 -95 25 -95 21 0 25 5 25 33 l1 32 27 -33 c19 -22
36 -32 55 -32 l28 0 -27 35 c-25 33 -26 37 -10 54 23 25 21 78 -3 91 -11 5
-42 10 -70 10 l-51 0 0 -95z"/>
<path d="M2180 615 c0 -94 0 -95 25 -95 22 0 24 4 27 58 l3 57 45 -57 c35 -46
51 -58 73 -58 l27 0 0 95 c0 94 0 95 -25 95 -22 0 -24 -4 -27 -57 l-3 -57 -44
57 c-35 46 -49 57 -72 57 l-29 0 0 -95z"/>
</g>
</svg>
